# xmcd CD database file
#
# Track frame offsets:
#	150
#	17950
#	32368
#	47795
#	62293
#	76333
#	94765
#	107913
#	123890
#	139275
#	156388
#	173980
#	187270
#	207530
#	226305
#	242205
#	257588
#	274175
#	292330
#	308760
#	309482
#	310545
#	311388
#	312738
#	313818
#	314698
#	315760
#	316843
#	317700
#	318713
#	319820
#	320943
#	322018
#	322900
#	323798
#	324655
#	325380
#	326290
#	327578
#
# Disc length: 4377 seconds
#
# Revision: 0
# Processed by: cddbd v1.5.2PL0 Copyright (c) Steve Scherf et al.
# Submitted via: CDex 1.70beta2
#
DISCID=4c111727
DTITLE=Jones - Jones Country Recurrent CHC-1157
DYEAR=0000
DGENRE=Country
TTITLE0=Mavericks/What A Crying Shame
TTITLE1=Tim McGraw/Indian Outlaw
TTITLE2=John Berry/Your Love Amazes Me [edit]
TTITLE3=Doug Stone/Addicted To The Dollar
TTITLE4=Dwight Yoakam/Try Not To Lok So Pretty
TTITLE5=Clay Walker/Where Do I Fit In The Picture
TTITLE6=Clint Black/A Good Run Of Bad Luck
TTITLE7=Toby Kieth/Wish I Didn't Know Now
TTITLE8=Randy Travis/Beofre You Kill Us All
TTITLE9=Confederate Railroad/Daddy Never Was The Cadillac Kid
TTITLE10=Pam Tillis/Spilled Perfume
TTITLE11=George Strait/Lovebug
TTITLE12=Patty Loveless/How Can I Help You Say Goodbye
TTITLE13=John Michael Montgomery/Rope The Moon
TTITLE14=Kathy Mattea/Walking Away A Winner
TTITLE15=Boy Howdy/They Don't Make 'Em Like That Anymore
TTITLE16=Brooks and Dunn/That Ain't No Way To Go
TTITLE17=Collin Raye/Little Rock
TTITLE18=Blackhawk/Every Once In A While
TTITLE19=Production/Audio Track 20
TTITLE20=Production/Track 21
TTITLE21=Production/Track 22
TTITLE22=Production/Track 23
TTITLE23=Production/Track 24
TTITLE24=Production/Track 25
TTITLE25=Production/Track 26
TTITLE26=Production/Track 27
TTITLE27=Production/Track 28
TTITLE28=Production/Track 29
TTITLE29=Production/Track 30
TTITLE30=Production/Track 31
TTITLE31=Production/Track 32
TTITLE32=Production/Track 33
TTITLE33=Production/Track 34
TTITLE34=Production/Track 35
TTITLE35=Production/Track 36
TTITLE36=Production/Track 37
TTITLE37=Production/Track 38
TTITLE38=Production/Track 39
EXTD=YEAR: 0000
EXTT0=
EXTT1=
EXTT2=
EXTT3=
EXTT4=
EXTT5=
EXTT6=
EXTT7=
EXTT8=
EXTT9=
EXTT10=
EXTT11=
EXTT12=
EXTT13=
EXTT14=
EXTT15=
EXTT16=
EXTT17=
EXTT18=
EXTT19=
EXTT20=
EXTT21=
EXTT22=
EXTT23=
EXTT24=
EXTT25=
EXTT26=
EXTT27=
EXTT28=
EXTT29=
EXTT30=
EXTT31=
EXTT32=
EXTT33=
EXTT34=
EXTT35=
EXTT36=
EXTT37=
EXTT38=
PLAYORDER=
